# AST/ASF file generated using VICON BodyLanguage
# -----------------------------------------------
:version 1.10
:name VICON
:units
  mass 1.0
  length 0.45
  angle deg
:documentation
   .ast/.asf automatically generated from VICON data using
   VICON BodyBuilder and BodyLanguage model FoxedUp or BRILLIANT.MOD
:root
   order TX TY TZ RX RY RZ
   axis XYZ
   position 0 0 0  
   orientation 0 0 0 
:bonedata
  begin
     id 1 
     name lhipjoint
     direction 0.677091 -0.635792 0.370561 
     length 2.74323 
     axis 0 0 0  XYZ
  end
  begin
     id 2 
     name lfemur
     direction 0.34202 -0.939693 0  
     length 7.44995  
     axis 0 0 20  XYZ
    dof rx ry rz
    limits (-160.0 20.0)
           (-70.0 70.0)
           (-60.0 70.0)
  end
  begin
     id 3 
     name ltibia
     direction 0.34202 -0.939693 0   
     length 7.34467   
     axis 0 0 20   XYZ
    dof rx
    limits (-10.0 170.0)
  end
  begin
     id 4 
     name lfoot
     direction 0.101953 -0.280114 0.954537   
     length 1.72105   
     axis -90 7.62852e-016 20   XYZ
    dof rx rz
    limits (-45.0 90.0)
           (-70.0 20.0)
  end
  begin
     id 5 
     name ltoes
     direction 1.53537e-011 -4.21915e-011 1   
     length 0.865872   
     axis -90 7.62852e-016 20   XYZ
    dof rx
    limits (-90.0 20.0)
  end
  begin
     id 6 
     name rhipjoint
     direction -0.695735 -0.620586 0.361699   
     length 2.81045  
     axis 0 0 0  XYZ 
  end
  begin
     id 7 
     name rfemur
     direction -0.34202 -0.939693 0   
     length 7.29387   
     axis 0 0 -20   XYZ
    dof rx ry rz
    limits (-160.0 20.0)
           (-70.0 70.0)
           (-70.0 60.0)
  end
  begin
     id 8 
     name rtibia
     direction -0.34202 -0.939693 0   
     length 7.44935   
     axis 0 0 -20   XYZ
    dof rx
    limits (-10.0 170.0)
 end
 begin
     id 9 
     name rfoot
     direction -0.104163 -0.286184 0.952496   
     length 1.77731  
     axis -90 -7.62852e-016 -20   XYZ
    dof rx rz
    limits (-45.0 90.0)
           (-20.0 70.0)
  end
  begin
     id 10 
     name rtoes
     direction -1.5355e-011 -4.21888e-011 1   
     length 0.892424   
     axis -90 -7.62852e-016 -20   XYZ
    dof rx
    limits (-90.0 20.0)
  end
  begin
     id 11 
     name lowerback
     direction 0.0100202 0.997226 -0.0737589   
     length 2.16892   
     axis 0 0 0   XYZ
    dof rx ry rz
    limits (-20.0 45.0)
           (-30.0 30.0)
           (-30.0 30.0)
  end
  begin
     id 12 
     name upperback
     direction 0.00432398 0.999988 -0.00215019   
     length 2.17326   
     axis 0 0 0   XYZ
    dof rx ry rz
    limits (-20.0 45.0)
           (-30.0 30.0)
           (-30.0 30.0)
  end
  begin
     id 13 
     name thorax
     direction -0.00195047 0.999485 0.0320434   
     length 2.18139   
     axis 0 0 0   XYZ
    dof rx ry rz
    limits (-20.0 45.0)
           (-30.0 30.0)
           (-30.0 30.0)
  end
  begin
     id 14 
     name lowerneck
     direction 0.00782762 0.986241 0.165128   
     length 1.88415   
     axis 0 0 0   XYZ
    dof rx ry rz
    limits (-20.0 45.0)
           (-30.0 30.0)
           (-30.0 30.0)
  end
  begin
     id 15 
     name upperneck
     direction 0.00988667 0.981098 -0.193258   
     length 1.9242   
     axis 0 0 0   XYZ
    dof rx ry rz
    limits (-20.0 45.0)
           (-30.0 30.0)
           (-30.0 30.0)
  end
  begin
     id 16
     name head
     direction 0.00252199 0.996513 -0.0833958  
     length 1.93887  
     axis 0 0 0   XYZ
    dof rx ry rz
    limits (-20.0 45.0)
           (-30.0 30.0)
           (-30.0 30.0)
  end
  begin
     id 17 
     name lclavicle
     direction 0.929492 0.368193 -0.0218667  
     length 3.5955  
     axis 0 0 0   XYZ
    dof ry rz
    limits (-20.0 10.0)
           (0.0 20.0)
  end
  begin
     id 18 
     name lhumerus
     direction 1 -4.48972e-011 1.41911e-027   
     length 5.2795   
     axis 180 -30 -90   XYZ
    dof rx ry rz
    limits (-60.0 90.0)
           (-90.0 90.0)
           (-90.0 90.0)
  end
  begin
     id 19
     name lradius
     direction 1 -4.48963e-011 7.05772e-027   
     length 3.53504   
     axis 180 -30 -90   XYZ
    dof rx
    limits (-10.0 170.0)
  end
  begin
     id 20
     name lwrist
     direction 1 -4.48957e-011 9.54866e-027   
     length 1.76752   
     axis -7.69462e-015 90 90   XYZ
    dof ry
    limits (-180.0 0.0)
 end
  begin
     id 21 
     name lhand
     direction 1 -4.48979e-011 1.90973e-026   
     length 0.667948   
     axis -1.21857e-014 90 90   XYZ
    dof rx rz
    limits (-90.0 90.0)
           (-45.0 45.0)
  end
  begin
     id 22 
     name lfingers
     direction 1 -4.48987e-011 3.81946e-026   
     length 0.538517   
     axis -2.43714e-014 90 90   XYZ
    dof rx
    limits (0.0 90.0)
  end
  begin
     id 23
     name lthumb
     direction 0.707107 -6.34962e-011 0.707107   
     length 0.773206   
     axis -90 45 2.85299e-015   XYZ
    dof rx rz
    limits (-45.0 45.0)
           (-45.0 45.0)
  end
  begin
     id 24 
     name rclavicle
     direction -0.898763 0.414256 -0.143584   
     length 3.5176  
     axis 0 0 0   XYZ 
    dof ry rz
    limits (-10.0 20.0)
           (-20.0 0.0)
  end
  begin
     id 25 
     name rhumerus
     direction -1 -4.48971e-011 1.129e-027  
     length 5.25035   
     axis 180 30 90   XYZ
    dof rx ry rz
    limits (-90.0 60.0)
           (-90.0 90.0)
           (-90.0 90.0)
  end
  begin
     id 26 
     name rradius
     direction -1 -4.48955e-011 6.34664e-027   
     length 3.58884   
     axis 180 30 90   XYZ
    dof rx
    limits (-10.0 170.0)
  end
  begin
     id 27 
     name rwrist
     direction -1 -4.48966e-011 9.54866e-027   
     length 1.79442   
     axis -7.69462e-015 -90 -90   XYZ
    dof ry
    limits (-180.0 0.0)
  end
  begin
     id 28
     name rhand
     direction -1 -4.48973e-011 1.90973e-026   
     length 0.779235   
     axis -1.21857e-014 -90 -90   XYZ
    dof rx rz
    limits (-90.0 90.0)
           (-45.0 45.0)
  end
  begin
     id 29
     name rfingers
     direction -1 -4.48984e-011 3.81946e-026   
     length 0.62824   
     axis -2.43714e-014 -90 -90   XYZ
    dof rx
    limits (0.0 90.0)
  end
  begin
     id 30
     name rthumb
     direction -0.707107 -6.34968e-011 0.707107   
     length 0.90203   
     axis -90 -45 -2.85299e-015   XYZ
    dof rx rz
    limits (-45.0 45.0)
           (-45.0 45.0)
  end
:hierarchy
  begin
    root lhipjoint rhipjoint lowerback
    lhipjoint lfemur
    lfemur ltibia
    ltibia lfoot
    lfoot ltoes
    rhipjoint rfemur
    rfemur rtibia
    rtibia rfoot
    rfoot rtoes
    lowerback upperback
    upperback thorax
    thorax lowerneck lclavicle rclavicle
    lowerneck upperneck
    upperneck head
    lclavicle lhumerus
    lhumerus lradius
    lradius lwrist
    lwrist lhand lthumb
    lhand lfingers
    rclavicle rhumerus
    rhumerus rradius
    rradius rwrist
    rwrist rhand rthumb
    rhand rfingers
  end

#!OML:ASF I:\Random Stuff\random\construction\7_22_03\Session 2\subj1.ASF
:FULLY-SPECIFIED
:DEGREES
127
root -12.5531 17.8848 -2.64874 -193.374 78.69 -202.822
lowerback 8.13767 0.916679 5.67942
upperback 0.683276 1.98384 3.45366
thorax -3.79451 0.962897 0.172897
lowerneck -19.2671 -6.76149 -3.58362
upperneck 38.0038 -9.51357 5.15295
head 17.802 -3.06301 1.2002
rclavicle -2.74323e-014 6.99722e-014
rhumerus -7.31436 -13.0901 -64.6744
rradius 36.8895
rwrist 33.08
rhand -34.7011 20.5539
rfingers 7.12502
rthumb -7.85633 -9.28017
lclavicle -2.74323e-014 6.99722e-014
lhumerus -29.172 -4.63795 90.3753
lradius 38.7774
lwrist 28.7937
lhand -25.0772 61.7414
lfingers 7.12502
lthumb 1.43704 268.284
rfemur -21.1102 8.71062 12.5172
rtibia 13.4132
rfoot 2.00491 -20.3089
rtoes -10.0186
lfemur -16.9498 13.9054 -17.1565
ltibia 63.1892
lfoot -13.3024 -6.46221
ltoes -18.4041
128
root -12.4461 17.8939 -2.62325 -193.477 78.9597 -203
lowerback 8.24579 1.05344 5.89287
upperback 0.669707 2.2031 3.53783
thorax -3.85725 1.06864 0.11499
lowerneck -19.2489 -6.68744 -3.57104
upperneck 38.0768 -9.44584 5.28333
head 17.8451 -3.00702 1.27668
rclavicle -2.50469e-014 1.90833e-014
rhumerus -7.23907 -14.1228 -64.8187
rradius 36.1366
rwrist 33.5418
rhand -34.2382 19.8192
rfingers 7.12502
rthumb -7.40945 -10.031
lclavicle -2.50469e-014 1.90833e-014
lhumerus -28.9424 -4.28204 90.2466
lradius 38.8994
lwrist 28.4736
lhand -24.5216 61.1036
lfingers 7.12502
lthumb 1.97363 268.926
rfemur -20.8711 8.93651 12.7846
rtibia 13.4059
rfoot 1.72485 -20.2704
rtoes -9.79429
lfemur -18.6525 14.2882 -17.6542
ltibia 64.16
lfoot -14.1596 -6.53651
ltoes -19.7919
129
root -12.3424 17.91 -2.60041 -193.541 79.0313 -203.086
lowerback 8.41813 1.11784 6.07732
upperback 0.66712 2.32846 3.60383
thorax -3.9478 1.12753 0.0628055
lowerneck -19.3351 -6.64809 -3.48707
upperneck 38.2583 -9.40315 5.26756
head 17.9605 -2.96479 1.26816
rclavicle 1.15295e-014 -1.11319e-014
rhumerus -7.33414 -14.971 -64.9229
rradius 35.7903
rwrist 33.6145
rhand -33.7096 18.9968
rfingers 7.12502
rthumb -6.89926 -10.8708
lclavicle 1.15295e-014 -1.11319e-014
lhumerus -28.9392 -4.36497 90.1434
lradius 39.6559
lwrist 28.4312
lhand -23.7493 60.714
lfingers 7.12502
lthumb 2.71948 269.324
rfemur -20.5491 9.26718 12.9451
rtibia 13.4715
rfoot 1.40171 -20.5698
rtoes -9.43573
lfemur -20.2878 14.5316 -18.1556
ltibia 64.5952
lfoot -14.7685 -5.40164
ltoes -23.2594
130
root -12.2409 17.9178 -2.5776 -193.398 78.9051 -202.904
lowerback 8.61293 1.06998 6.19018
upperback 0.700796 2.30054 3.68664
thorax -4.02261 1.11336 0.0847822
lowerneck -19.4567 -6.47414 -3.43516
upperneck 38.375 -9.21228 5.41989
head 18.0562 -2.84806 1.37236
rclavicle -7.55382e-015 7.95139e-015
rhumerus -7.48738 -15.5947 -65.0668
rradius 35.7783
rwrist 33.4638
rhand -33.3303 18.1049
rfingers 7.12502
rthumb -6.53304 -11.7743
lclavicle -7.55382e-015 7.95139e-015
lhumerus -28.8368 -4.07165 89.8948
lradius 40.4445
lwrist 28.0203
lhand -22.5457 59.9777
lfingers 7.12502
lthumb 3.88178 89.9221
rfemur -20.2014 9.59558 13.0843
rtibia 13.6943
rfoot 1.22528 -21.0835
rtoes -9.9229
lfemur -21.8192 14.3984 -18.6049
ltibia 64.6156
lfoot -15.6088 -4.35483
ltoes -26.4032
131
root -12.1434 17.9189 -2.55456 -193.021 78.6714 -202.506
lowerback 8.80299 0.992863 6.25361
upperback 0.722218 2.23108 3.78455
thorax -4.11181 1.07931 0.155074
lowerneck -19.5018 -6.29487 -3.46707
upperneck 38.3836 -9.04407 5.73312
head 18.0916 -2.73638 1.56072
rclavicle 1.39149e-014 -3.18055e-014
rhumerus -7.77144 -16.2271 -65.1918
rradius 35.9673
rwrist 33.3167
rhand -33.1501 17.4055
rfingers 7.12502
rthumb -6.35914 -12.479
lclavicle 1.39149e-014 -3.18055e-014
lhumerus -28.7631 -3.76679 89.6402
lradius 41.5554
lwrist 27.4348
lhand -20.8149 58.8776
lfingers 7.12502
lthumb 5.55304 88.7848
rfemur -19.9482 9.83062 13.2355
rtibia 14.0677
rfoot 0.947014 -21.6591
rtoes -10.3687
lfemur -23.2538 14.0145 -18.8956
ltibia 64.3198
lfoot -16.2394 -3.89525
ltoes -25.7995
132
root -12.0516 17.9175 -2.53333 -192.861 78.3952 -202.329
lowerback 9.04796 0.910403 6.26475
upperback 0.719914 2.15276 3.84348
thorax -4.25707 1.03892 0.21402
lowerneck -19.4997 -6.17658 -3.39063
upperneck 38.4033 -8.94243 5.87607
head 18.1025 -2.66032 1.63798
rclavicle -6.36111e-015 -6.04305e-014
rhumerus -8.17407 -16.8201 -65.3258
rradius 36.2493
rwrist 33.1281
rhand -33.219 16.7304
rfingers 7.12502
rthumb -6.42568 -13.1521
lclavicle -6.36111e-015 -6.04305e-014
lhumerus -28.7854 -3.86833 89.461
lradius 43.191
lwrist 27.6297
lhand -19.3758 58.6126
lfingers 7.12502
lthumb 6.94241 88.4787
rfemur -19.8081 9.89976 13.3511
rtibia 14.6355
rfoot 0.117276 -22.2048
rtoes -9.27319
lfemur -24.6927 13.5352 -19.1439
ltibia 63.7503
lfoot -16.7201 -3.87344
ltoes -23.7418
133
root -11.9632 17.9129 -2.51374 -192.562 78.1506 -202.011
lowerback 9.30803 0.810107 6.30392
upperback 0.708476 2.05362 3.8733
thorax -4.41898 0.986544 0.230058
lowerneck -19.4706 -6.05857 -3.24477
upperneck 38.4624 -8.85155 5.98119
head 18.1218 -2.58189 1.68531
rclavicle 2.06736e-014 1.27222e-014
rhumerus -8.62921 -17.2701 -65.4961
rradius 36.5735
rwrist 32.8716
rhand -33.6178 16.3073
rfingers 7.12502
rthumb -6.81067 -13.5632
lclavicle 2.06736e-014 1.27222e-014
lhumerus -28.6882 -3.66427 89.0374
lradius 44.5353
lwrist 26.879
lhand -15.9829 57.3246
lfingers 7.12502
lthumb 10.2167 87.0565
rfemur -19.7606 9.95142 13.5082
rtibia 15.3399
rfoot -0.812171 -22.6957
rtoes -8.12001
lfemur -26.1659 13.0485 -19.297
ltibia 62.9192
lfoot -16.9646 -4.11099
ltoes -22.2517
134
root -11.8764 17.9049 -2.49643 -191.701 77.9431 -201.158
lowerback 9.49478 0.71895 6.42918
upperback 0.713235 1.97181 3.93639
thorax -4.52079 0.944022 0.233144
lowerneck -19.4773 -5.97357 -3.18634
upperneck 38.5724 -8.80026 6.14568
head 18.1947 -2.51977 1.76897
rclavicle 3.18055e-015 2.8625e-014
rhumerus -9.12821 -17.6421 -65.5957
rradius 36.9738
rwrist 32.566
rhand -34.1337 16.3044
rfingers 7.12502
rthumb -7.30863 -13.5494
lclavicle 3.18055e-015 2.8625e-014
lhumerus -28.493 -3.78994 88.8154
lradius 46.0053
lwrist 27.0547
lhand -13.7255 57.0816
lfingers 7.12502
lthumb 12.3938 86.6942
rfemur -19.8101 10.1151 13.7668
rtibia 16.1454
rfoot -1.52758 -23.2114
rtoes -7.89915
lfemur -27.6038 12.5917 -19.2701
ltibia 61.8396
lfoot -17.3575 -3.9103
ltoes -24.0581
135
root -11.7924 17.8917 -2.48513 -190.963 77.7691 -200.422
lowerback 9.67234 0.649031 6.56199
upperback 0.740559 1.917 3.99322
thorax -4.59227 0.915714 0.222764
lowerneck -19.5282 -5.89972 -3.12471
upperneck 38.7126 -8.72942 6.21174
head 18.2866 -2.46222 1.81045
rclavicle 4.29375e-014 -9.54166e-015
rhumerus -9.6779 -17.8823 -65.6295
rradius 37.4638
rwrist 32.1943
rhand -34.5395 16.3241
rfingers 7.12502
rthumb -7.70029 -13.5157
lclavicle 4.29375e-014 -9.54166e-015
lhumerus -28.2619 -4.27398 88.6858
lradius 47.602
lwrist 27.3667
lhand -11.7292 56.8373
lfingers 7.12502
lthumb 14.3179 86.3236
rfemur -19.8618 10.1271 14.0357
rtibia 16.9415
rfoot -2.06471 -23.5325
rtoes -8.17831
lfemur -28.8577 12.2368 -19.2317
ltibia 60.4888
lfoot -17.4448 -3.84061
ltoes -24.2702
136
root -11.71 17.8736 -2.48005 -190.318 77.6382 -199.78
lowerback 9.84586 0.56068 6.68733
upperback 0.776968 1.83529 4.03595
thorax -4.65287 0.874372 0.205847
lowerneck -19.5883 -5.79871 -2.96206
upperneck 38.8189 -8.61765 6.16976
head 18.342 -2.39253 1.78979
rclavicle 2.22639e-014 6.67916e-014
rhumerus -10.1901 -17.927 -65.707
rradius 37.9852
rwrist 31.8864
rhand -34.898 16.2655
rfingers 7.12502
rthumb -8.04629 -13.5613
lclavicle 2.22639e-014 6.67916e-014
lhumerus -28.0638 -4.85276 88.6019
lradius 49.3883
lwrist 28.0573
lhand -11.0277 56.9831
lfingers 7.12502
lthumb 14.9938 86.4202
rfemur -19.8957 9.97356 14.3142
rtibia 17.6735
rfoot -2.67261 -23.7201
rtoes -8.32808
lfemur -29.9212 12.0761 -19.1494
ltibia 58.8758
lfoot -17.6521 -3.21613
ltoes -26.7363
137
root -11.6277 17.8585 -2.48016 -189.596 77.5292 -199.075
lowerback 9.96232 0.452856 6.7929
upperback 0.831118 1.72014 4.09041
thorax -4.66539 0.818878 0.218032
lowerneck -19.6762 -5.70481 -2.83206
upperneck 38.8999 -8.52057 6.15677
head 18.3961 -2.33157 1.78338
rclavicle 1.82882e-014 6.04305e-014
rhumerus -10.6175 -17.8232 -65.8231
rradius 38.5213
rwrist 31.5064
rhand -35.2561 16.4012
rfingers 7.12502
rthumb -8.39196 -13.4121
lclavicle 1.82882e-014 6.04305e-014
lhumerus -27.7413 -5.1502 88.4846
lradius 50.9629
lwrist 28.1968
lhand -10.2854 56.7833
lfingers 7.12502
lthumb 15.7088 86.1657
rfemur -19.9238 9.8443 14.5964
rtibia 18.3502
rfoot -3.42762 -23.9537
rtoes -8.1223
lfemur -30.8612 11.9318 -18.9551
ltibia 57.0226
lfoot -17.6854 -2.89478
ltoes -28.8477
138
root -11.5526 17.8495 -2.48708 -189.2 77.5847 -198.823
lowerback 10.0191 0.412311 6.83411
upperback 0.851305 1.67902 4.11765
thorax -4.67768 0.799011 0.228479
lowerneck -19.7701 -5.60498 -2.73914
upperneck 39.0082 -8.38987 6.11972
head 18.4662 -2.26533 1.78044
rclavicle -2.14687e-014 -1.27222e-014
rhumerus -11.0743 -17.5766 -65.8978
rradius 39.142
rwrist 30.8179
rhand -35.5029 16.8497
rfingers 7.12502
rthumb -8.63011 -12.9539
lclavicle -2.14687e-014 -1.27222e-014
lhumerus -27.3716 -5.47899 88.367
lradius 52.4705
lwrist 28.1104
lhand -9.6986 56.4821
lfingers 7.12502
lthumb 16.2739 85.8192
rfemur -20.116 9.64814 14.7772
rtibia 18.9314
rfoot -4.10931 -23.9208
rtoes -7.71472
lfemur -31.7867 11.6394 -18.7822
ltibia 54.9287
lfoot -17.6409 -2.75995
ltoes -30.9795
139
root -11.4895 17.8456 -2.50381 -188.898 78.0298 -198.934
lowerback 9.93755 0.514652 6.90908
upperback 0.78884 1.8156 4.10023
thorax -4.6889 0.862093 0.151216
lowerneck -19.7516 -5.48679 -2.58257
upperneck 39.054 -8.23083 6.03007
head 18.4585 -2.19109 1.74658
rclavicle -3.89618e-014 -9.54166e-014
rhumerus -11.5967 -17.2657 -65.9399
rradius 39.8643
rwrist 30.1219
rhand -35.5783 17.1308
rfingers 7.12502
rthumb -8.7029 -12.6698
lclavicle -3.89618e-014 -9.54166e-014
lhumerus -26.9986 -5.89468 88.2721
lradius 53.944
lwrist 28.0513
lhand -9.8469 56.475
lfingers 7.12502
lthumb 16.1311 85.8237
rfemur -20.6938 9.23339 14.9256
rtibia 19.3968
rfoot -4.73679 -23.2776
rtoes -7.29462
lfemur -32.8345 11.4203 -18.6083
ltibia 52.6178
lfoot -17.3794 -3.09671
ltoes -32.1471
140
root -11.4127 17.8417 -2.51765 -188.958 78.2484 -198.987
lowerback 10.114 0.502487 6.88111
upperback 0.849258 1.81102 4.09601
thorax -4.72499 0.860798 0.16036
lowerneck -19.7061 -5.3413 -2.4297
upperneck 39.0762 -8.04878 5.99196
head 18.4333 -2.1026 1.74217
rclavicle -2.8625e-014 -1.90833e-014
rhumerus -12.03 -16.9663 -66.016
rradius 40.5565
rwrist 29.6122
rhand -35.6603 16.9534
rfingers 7.12502
rthumb -8.78202 -12.8439
lclavicle -2.8625e-014 -1.90833e-014
lhumerus -26.5368 -6.21295 88.1617
lradius 55.2194
lwrist 27.7961
lhand -10.3103 56.6235
lfingers 7.12502
lthumb 15.6849 86.0077
rfemur -20.6094 9.3608 15.0417
rtibia 19.7826
rfoot -5.4132 -23.3546
rtoes -6.82526
lfemur -33.1361 10.9984 -18.2249
ltibia 50.0809
lfoot -16.9968 -3.94563
ltoes -32.8199
141
root -11.339 17.8357 -2.54043 -189.456 78.5515 -199.544
lowerback 10.2686 0.518746 6.81116
upperback 0.886258 1.83453 4.06105
thorax -4.77215 0.872139 0.157065
lowerneck -19.8323 -5.12287 -2.27018
upperneck 39.2906 -7.75463 5.94319
head 18.5599 -1.95749 1.76168
rclavicle 1.98785e-014 -7.79236e-014
rhumerus -12.3536 -16.7416 -66.1219
rradius 41.1864
rwrist 29.1572
rhand -35.9271 16.5448
rfingers 7.12502
rthumb -9.03949 -13.2415
lclavicle 1.98785e-014 -7.79236e-014
lhumerus -25.9898 -6.3064 88.0226
lradius 56.2232
lwrist 27.1335
lhand -10.6222 56.558
lfingers 7.12502
lthumb 15.3844 85.9656
rfemur -20.5802 9.52618 15.0246
rtibia 20.0649
rfoot -5.80692 -23.3497
rtoes -6.87989
lfemur -33.2963 10.4198 -17.8538
ltibia 47.3977
lfoot -16.6588 -4.50923
ltoes -34.1246
